<?xml version="1.0" encoding="UTF-8"?>
<svg id="Vectors" xmlns="http://www.w3.org/2000/svg" viewBox="0 0 6000 4000">
  <defs>
    <style>
      .cls-1 {
        fill: #fff;
      }

      .cls-2 {
        fill: #bfbcba;
      }

      .cls-3 {
        fill: #ffc727;
      }

      .cls-4 {
        fill: #eff0f1;
      }

      .cls-5 {
        fill: #1a1a1a;
      }

      .cls-6 {
        fill: #1d1d1b;
      }
    </style>
  </defs>
  <path class="cls-4" d="m2955.57,919.97h-559.32s-22.54-84.68,47.12-124.98c69.66-40.29,119.51,12.98,119.51,12.98,0,0,64.88-109.27,170.05-107.9,105.17,1.37,133.17,90.83,133.17,90.83,0,0,213.76-53.27,208.98,42.34-4.78,95.61-119.51,86.73-119.51,86.73Z"/>
  <g>
    <path class="cls-4" d="m4586.87,3222.08s126.52-207.75,317.09-148.39c190.57,59.36,159.33,259.3,159.33,259.3,0,0,95.28-7.81,79.66,162.45h-637.31c-110.55-32.85-29.32-306.2,81.23-273.35Z"/>
    <circle class="cls-4" cx="5172.58" cy="3196.02" r="76.54"/>
    <path d="m1456.69,697.11s122.93-3.76,115.07,89.46c-7.85,93.22-94.93,66.93-94.93,66.93l-20.15-156.39Z"/>
    <g>
      <path class="cls-1" d="m2338.2,2803.5c-165.27-73.07-95.61-241.76-95.61-241.76,0,0,178.25,98.34,95.61,241.76Z"/>
      <path class="cls-5" d="m2338.2,2807.81c-.58,0-1.18-.12-1.74-.37-38.48-17.02-67.6-40.64-86.55-70.22-15.18-23.71-23.86-51.21-25.79-81.73-3.27-51.71,13.76-93.63,14.49-95.39.47-1.13,1.4-2.02,2.56-2.42,1.16-.41,2.44-.3,3.51.29.94.52,23.24,12.92,48.63,35.44,23.54,20.88,54.08,54.68,65.93,97.16,10.61,38.04,4.79,76.76-17.29,115.08-.79,1.37-2.24,2.16-3.74,2.16Zm-93.36-239.73c-4.26,12.26-14.7,47.09-12.1,87.16,4.21,65.02,39.08,113.01,103.64,142.71,19.3-35.12,24.2-70.45,14.54-105.06-18.86-67.65-88.01-113.74-106.08-124.8Z"/>
    </g>
    <g>
      <path class="cls-1" d="m2184.57,2850.45c61.3,34.36,92.62,78.82,80.05,101.23-12.56,22.41-66.83,18.89-128.13-15.48-61.3-34.36-93.84-108.96-93.84-108.96,0,0,80.62-11.16,141.92,23.21Z"/>
      <path class="cls-5" d="m2229.92,2970.15c-3.65,0-7.49-.21-11.53-.63-24.77-2.58-54.61-13.08-84-29.56-61.85-34.67-94.33-107.9-95.68-111-.54-1.24-.47-2.65.19-3.83.66-1.18,1.83-1.98,3.17-2.16,3.35-.46,82.77-10.96,144.62,23.72,29.39,16.48,53.91,36.45,69.04,56.24,15.32,20.04,19.82,38.1,12.66,50.86-6,10.7-19.47,16.36-38.46,16.36Zm-180.75-139.26c8.74,17.55,39.58,73.6,89.43,101.55,28.39,15.92,57.04,26.04,80.68,28.5,21.14,2.2,36.3-1.94,41.58-11.37s.92-24.52-11.99-41.41c-14.43-18.88-38.01-38.04-66.41-53.96h0c-49.91-27.98-113.77-25.03-133.29-23.32Z"/>
    </g>
    <g>
      <path class="cls-3" d="m1838.18,1587.44s-37.91,56.09-126.18,57.11c-87.29,1.06-121.46-143.06-122.24-146.4v-.04l-56.13-103.05-39.95-334.98s137.67,29.2,171.22,291.43l67.47,121.41c89.12-20.49,136.25-22.54,152.64,2.05,16.39,24.59-46.83,112.47-46.83,112.47Z"/>
      <path class="cls-5" d="m1711.04,1648.87c-20.64,0-40.04-7.74-57.69-23.02-14.13-12.24-27.16-29.33-38.72-50.81-18.93-35.16-27.79-70.56-28.96-75.41l-55.83-102.51c-.26-.48-.43-1.01-.5-1.55l-39.95-334.98c-.16-1.38.35-2.76,1.37-3.69,1.03-.94,2.44-1.32,3.8-1.03,1.46.31,36.16,8.04,75.24,48.6,22.77,23.63,42.32,53.62,58.12,89.12,19.57,43.99,33.41,96.66,41.14,156.55l65.49,117.85c45.77-10.41,78.04-15.26,101.4-15.26,26.88,0,43.6,6.31,52.63,19.85,7.87,11.8,2.28,34.67-17.07,69.92-13.41,24.42-28.96,46.23-29.8,47.41-.78,1.14-10.57,15.11-31.08,29.25-19.21,13.25-51.91,29.16-98.59,29.7-.33,0-.67,0-1,0Zm-117.03-151.46c.81,3.44,9.39,38.58,28.22,73.55,24.98,46.39,55.19,69.7,89.72,69.28,44.31-.51,75.28-15.47,93.45-27.94,19.74-13.54,29.12-27.15,29.21-27.28.02-.03.05-.07.07-.1,23.76-33.05,57.47-91.47,46.74-107.56-14.26-21.39-55.78-21.46-148.08-.24-1.87.43-3.8-.43-4.73-2.11l-67.47-121.41c-.27-.48-.44-1-.51-1.55-17.12-133.8-61.92-204.94-96.5-241.07-28.04-29.3-54.05-40.89-65.38-44.88l39.07,327.61,55.73,102.32c.23.42.39.88.47,1.36Z"/>
    </g>
    <g>
      <path class="cls-6" d="m1392.64,2724.79c-8.95,36.12-34.74,107.02-60.77,174.99l-5.53,14.39-11.51,29.66c-26.6,67.89-49.42,123.5-49.42,123.5h-164.09c20.62-117.11,85.91-848.9,86.6-856.59l33.28-448.95,368.58,29.17s35.03,273.03.2,475.86c-34.83,202.83-197.33,457.96-197.33,457.96Z"/>
      <path class="cls-6" d="m1265.4,3071.65h-164.09c-1.27,0-2.48-.56-3.3-1.54-.82-.98-1.16-2.26-.94-3.52,19.65-111.57,79.67-779.31,86.45-855.08l.1-1.14,33.27-448.88c.08-1.14.62-2.21,1.49-2.95.87-.75,2.01-1.12,3.15-1.02l368.58,29.17c2.03.16,3.68,1.73,3.94,3.75.09.68,8.83,69.5,13.19,162.21,4.03,85.62,5.04,209.76-13.02,314.92-18.08,105.3-70.96,224.66-112.13,306.25-42.27,83.76-81.2,145.97-85.44,152.69-7.77,31.02-28.21,89.83-60.76,174.82l-5.53,14.4-11.52,29.67c-26.32,67.16-49.23,123.02-49.45,123.57-.66,1.62-2.24,2.67-3.99,2.67Zm-158.99-8.62h156.1c4.87-11.9,25.28-62,48.3-120.76l11.51-29.65,5.53-14.38c32.66-85.28,53.06-143.99,60.61-174.49.11-.45.3-.88.55-1.28.41-.64,41.06-64.68,85.44-152.63,40.89-81.04,93.39-199.52,111.29-303.74,17.93-104.39,16.91-227.86,12.9-313.06-3.79-80.6-10.9-143-12.71-158.05l-360.75-28.55-32.96,444.63-.11,1.21c-6.69,74.74-65.16,725.17-85.69,850.75Z"/>
    </g>
    <g>
      <path class="cls-6" d="m1545.81,2104.14s2.08,5.54,42.24,139.86c40.16,134.32,41.09,683.91,41.09,683.91h-185.76s-109.98-455.26-209.14-620.21c-176.04-292.87-144.71-527.6-144.71-527.6l394.93-54.15,61.35,378.19Z"/>
      <path class="cls-6" d="m1629.13,2932.23h-185.76c-1.99,0-3.72-1.36-4.19-3.3-.27-1.14-27.93-115.28-67.34-248.07-52.09-175.53-100.95-303.8-141.3-370.93-40.31-67.06-73.03-136.64-97.26-206.8-19.39-56.16-33.41-112.82-41.68-168.41-14.1-94.8-6.43-154.58-6.35-155.18.26-1.92,1.77-3.44,3.69-3.7l394.93-54.15c2.36-.33,4.53,1.33,4.86,3.69.32,2.36-1.33,4.53-3.69,4.86l-391.6,53.7c-1.34,13.54-5.39,68.62,6.74,149.91,12.9,86.47,47.27,221.13,137.74,371.65,51.45,85.6,105.72,250.06,142.19,372.96,35.72,120.39,61.81,225.47,66.64,245.17h178.05c-.21-51.93-3.24-552.45-40.89-678.37-38.93-130.2-42.05-139.32-42.16-139.64-.78-2.23.37-4.69,2.59-5.49,2.22-.81,4.67.31,5.5,2.52.09.23,2.59,7.21,42.33,140.14,16.76,56.06,28.8,188.42,35.78,393.42,5.19,152.49,5.48,290.35,5.49,291.73,0,1.14-.45,2.24-1.26,3.05-.81.81-1.91,1.26-3.05,1.26Z"/>
    </g>
    <g>
      <path class="cls-3" d="m1080.32,1651.56s-26.8,64.84,9.21,128.54c85.86,66.47,501.29,54.01,507.52,0,29.77-148.17-10.26-508.99-19.82-574.55s-47.18-147.51-88.16-161.34c-40.98-13.83-154.68-5.12-154.68-5.12,0,0-140.86,11.78-166.47,53.78-25.61,42-95.27,403.61-97.32,425.13-2.05,21.51,9.72,133.57,9.72,133.57h0Z"/>
      <path class="cls-5" d="m1355.84,1829.72c-9.42,0-18.92-.1-28.48-.3-53.47-1.14-103.11-5.47-143.55-12.54-46.14-8.06-78.75-19.29-96.92-33.36-.45-.35-.83-.79-1.11-1.29-19.15-33.87-20.71-68-18.64-90.67,1.94-21.35,7.26-36.54,8.8-40.59-1.26-12.12-11.6-112.56-9.61-133.38,1.82-19.13,71.21-383.14,97.93-426.96,26.45-43.37,163.95-55.34,169.79-55.83,4.71-.36,115.09-8.62,156.42,5.33,19.96,6.73,40.66,29.24,58.31,63.38,15.88,30.72,27.81,67.69,32.73,101.43,8.85,60.71,50.1,424.7,19.81,575.86-1.09,8.53-9.1,15.83-24.48,22.31-38.92,16.39-125.48,26.62-220.98,26.62Zm-262.99-52.5c33.06,24.88,120.62,41.16,234.69,43.58,105.36,2.24,204.19-8.07,245.93-25.65,11.86-4.99,18.71-10.51,19.29-15.54.01-.12.03-.24.06-.35,30.11-149.86-11.03-512.57-19.86-573.08-4.79-32.83-16.4-68.81-31.86-98.71-16.61-32.14-35.58-53.15-53.41-59.17-39.68-13.39-151.85-4.99-152.98-4.91-.32.03-35.42,3.02-73.14,11.08-49.03,10.47-80.14,24.52-89.97,40.65-25.28,41.46-94.92,404.48-96.71,423.29-1.98,20.84,9.6,131.59,9.71,132.71.08.71-.03,1.43-.3,2.1-.34.82-25.26,63.31,8.55,124.01Z"/>
    </g>
    <g>
      <path class="cls-1" d="m1304.53,962.68v77.62l13.37,52.46s31.05,37.68,77.85,38.93,51.76-32.89,51.76-32.89l-.44-90.43s35.38,1.99,64.02-27.59c49.17-50.78-18.72-217.82-18.72-217.82,0,0-38.13-121.33-154.4-67.55-116.27,53.78-89.64,129.07-74.78,182.86,14.85,53.78,41.34,84.42,41.34,84.42Z"/>
      <path class="cls-5" d="m1398.2,1136.02c-.84,0-1.69-.01-2.56-.03-48.21-1.29-79.75-38.9-81.07-40.5-.4-.49-.69-1.06-.85-1.68l-13.37-52.46c-.09-.35-.13-.71-.13-1.06v-76.06c-5.19-6.4-27.74-36.15-41.18-84.83-.6-2.16-1.21-4.36-1.84-6.59-7.73-27.57-16.5-58.82-9.18-90.85,8.54-37.4,37.38-67,88.15-90.48,35.61-16.47,67.77-18.58,95.59-6.27,45.9,20.3,63.39,72.24,64.68,76.27,3.61,8.92,67.97,170.43,17.75,222.29-23.86,24.64-51.92,28.39-62.79,28.87l.42,86.12c0,.21-.01.43-.04.64-.06.4-1.5,9.86-9.3,19.08-6.84,8.09-20.03,17.54-44.27,17.54Zm-76.38-45.32c4.45,5.01,33.26,35.58,74.04,36.67,40.43,1.1,46.72-25.67,47.33-28.94l-.44-90.05c0-1.19.48-2.33,1.34-3.15s2.03-1.24,3.21-1.18c.33.02,33.84,1.43,60.68-26.28,46.66-48.18-18.94-211.55-19.61-213.2-.04-.11-.08-.22-.12-.33-.16-.52-16.89-52.11-60.05-71.17-25.44-11.23-55.19-9.13-88.43,6.24-48.18,22.29-75.45,49.95-83.36,84.58-6.83,29.89,1.62,60.02,9.08,86.6.63,2.24,1.25,4.45,1.85,6.62,14.43,52.24,40.18,82.45,40.44,82.75.68.78,1.05,1.78,1.05,2.82v77.07l12.99,50.95Z"/>
    </g>
    <g>
      <path class="cls-1" d="m1970.71,1302.87s14.68,18.44,2.73,42.68c-11.95,24.24-13.66,39.27-13.66,39.27l-31.41-26.98,42.34-54.98Z"/>
      <path class="cls-5" d="m1959.78,1389.13c-1.01,0-2.01-.36-2.8-1.04l-31.42-26.98c-1.74-1.49-2-4.09-.61-5.9l42.34-54.98c.81-1.05,2.06-1.67,3.38-1.68.01,0,.02,0,.03,0,1.31,0,2.55.6,3.37,1.63.67.84,16.24,20.88,3.23,47.27-11.4,23.13-13.23,37.71-13.24,37.86-.19,1.58-1.23,2.94-2.72,3.52-.51.2-1.04.3-1.57.3Zm-25.5-31.89l22.73,19.52c1.72-6.95,5.31-18.38,12.57-33.11,7.19-14.59,3.76-26.7.69-33.14l-35.99,46.73Z"/>
    </g>
    <path class="cls-5" d="m2402.11,3086.56c-1.58,0-3.11-.88-3.86-2.39-.37-.73-37.45-74.01-113.56-123.26-59.37-38.42-127.62-57.57-128.3-57.76-2.29-.63-3.64-3.01-3-5.3.63-2.29,3.02-3.64,5.3-3,.69.19,70.17,19.67,130.69,58.83,78.17,50.58,116.22,125.9,116.6,126.66,1.06,2.13.19,4.72-1.94,5.78-.62.31-1.27.45-1.92.45Z"/>
    <path class="cls-4" d="m4438.84,3499.99h-2282.68c-1.18-110.68,23.14-461.82,383.45-433.31,144.42-276.6,442.54-202.82,531.66-58.4l964.98,135.22s169.02-46.1,165.95,159.82c132.15-76.85,273.52,89.12,236.65,196.67Z"/>
    <g>
      <path class="cls-1" d="m4660.07,3165.58c-12.78,63.75-67.61,88.08-90.92,83.4-23.31-4.67-39.72-54.4-22.89-117.21,19.53-72.9,106.3-109.55,106.3-109.55,0,0,.21,16.72,3.55,40.03,4.13,28.8,11.02,68.09,3.95,103.33Z"/>
      <path class="cls-5" d="m4575.18,3253.84c-2.48,0-4.78-.21-6.87-.63-7.77-1.56-14.85-7.16-20.46-16.19-11.56-18.63-19.14-56.35-5.75-106.36,10.41-38.83,39.48-67.35,62.04-84.43,24.28-18.39,45.84-27.59,46.75-27.97,1.32-.56,2.84-.42,4.04.36,1.2.79,1.93,2.12,1.95,3.55,0,.17.25,16.75,3.51,39.47.34,2.41.71,4.88,1.08,7.43,4.21,28.66,9.46,64.34,2.83,97.36h0c-12.15,60.56-61.31,87.41-89.12,87.41Zm73.32-224.94c-19.42,9.62-82.19,44.77-98.06,103.99-12.7,47.4-5.38,83.26,4.74,99.58,4.32,6.96,9.45,11.21,14.83,12.29,9.91,1.98,27.98-1.97,46-15.28,14.39-10.64,32.98-30.5,39.85-64.74,6.33-31.56,1.21-66.41-2.91-94.41-.38-2.55-.74-5.04-1.09-7.46-2.13-14.83-3-26.94-3.35-33.96Zm11.58,136.68h0,0Z"/>
    </g>
    <g>
      <path class="cls-1" d="m4567.91,3391.97s193.61,10.24,237.66-178.25c-109.61-12.29-217.17,63.51-237.66,178.25Z"/>
      <path class="cls-5" d="m4573.57,3396.39c-3.45,0-5.51-.1-5.89-.12-1.23-.07-2.38-.66-3.15-1.63-.77-.97-1.08-2.22-.87-3.44,9.99-55.96,40.92-105.49,87.1-139.47,45.41-33.42,100.55-48.44,155.29-42.3,1.22.14,2.33.79,3.04,1.8.71,1.01.96,2.27.68,3.47-10.22,43.75-29.33,80.55-56.79,109.36-21.98,23.06-49.29,41.05-81.19,53.48-43.82,17.07-83.57,18.85-98.21,18.85Zm207.95-179.71c-99.86,0-188.14,71.13-208.42,171.06,13.59-.02,53.2-1.67,95.84-18.35,68.51-26.79,112.65-77.88,131.27-151.88-6.27-.56-12.5-.83-18.69-.83Z"/>
    </g>
    <g>
      <path class="cls-1" d="m2526.65,2882.37c-10.69,64.22-39.59,105.49-63.07,101.58-23.48-3.91-37.46-52.31-26.77-116.53,10.69-64.22,65.48-116.02,65.48-116.02,0,0,35.06,66.76,24.37,130.98Z"/>
      <path class="cls-5" d="m2466.74,2988.52c-1.3,0-2.59-.11-3.88-.32-13.5-2.25-24.04-16.05-29.68-38.87-5.55-22.44-5.77-51.79-.64-82.63,10.8-64.9,64.49-116.29,66.77-118.45.98-.93,2.34-1.35,3.67-1.12,1.33.22,2.48,1.05,3.11,2.25,1.46,2.78,35.61,68.79,24.81,133.69l-4.25-.71,4.25.71c-5.13,30.84-14.85,58.53-27.37,77.96-11.51,17.88-24.43,27.48-36.79,27.48Zm34.31-229.75c-12.86,13.52-51.39,57.64-60,109.35-10.43,62.69,3.59,108.3,23.23,111.57,9.74,1.62,21.41-6.88,32-23.32,11.89-18.47,21.17-45,26.11-74.71,8.61-51.71-13.55-105.93-21.35-122.89Z"/>
    </g>
    <path d="m1492.38,762.95c-8.91,8.58-34.37.94-62.64-19.61-12.85,86.97-83.02,23.88-56.34,113.82-14.97,14.81-29.08-10.41-38.85-21.68-50.2.49-25.91,53.45,2.64,77.78-9.32,24.37-20.58,40.23-32.66,49.42-69.97,53.41-168.04-115.77-80.79-140.78-.98-12.65-4.6-52.23,18.02-51.01,0,0-1.02-78.67,62.07-55.85,14.16-14.2,35.47-44.22,61.06-30.06,7.97-18.3,18.51-24.53,23.96-26.93,30.83-13.5,72.65,20.34,91.52,51.29,8.54,13.99,22.33,43.69,12,53.61Z"/>
    <circle cx="1249.78" cy="693.55" r="60.42"/>
    <g>
      <path class="cls-1" d="m1451.65,1022.64s-15.23,397.43-16.62,411.28c-1.38,13.85,74.78-191.1,74.78-191.1l-48.47-32.54,58.51-14.89,20.5-127.78c-27.82-21.69-57.49-36.26-88.7-44.97Z"/>
      <path class="cls-5" d="m1435.39,1438.94c-.39,0-.8-.05-1.24-.15-.39-.09-3.83-1.01-3.4-5.3,1.36-13.56,16.45-407.04,16.6-411.01.05-1.32.7-2.54,1.77-3.32,1.07-.78,2.43-1.02,3.7-.67,32.61,9.09,62.95,24.48,90.2,45.72,1.24.97,1.85,2.53,1.61,4.08l-20.5,127.78c-.27,1.7-1.53,3.07-3.19,3.49l-49.16,12.51,40.46,27.16c1.66,1.11,2.33,3.21,1.64,5.08-.18.48-18.1,48.69-36.17,96.19-10.62,27.91-19.22,50.12-25.55,66.02-3.77,9.47-6.78,16.78-8.94,21.75-3.14,7.22-4.64,10.67-7.8,10.67Zm20.36-410.62c-1.66,43.22-11.76,305.63-15.3,384.2,14.39-35.49,43.33-112.05,64.14-168.01l-45.64-30.65c-1.41-.95-2.13-2.64-1.85-4.31s1.54-3.02,3.19-3.44l55.76-14.19,19.65-122.46c-24.35-18.61-51.21-32.43-79.95-41.13Z"/>
    </g>
    <g>
      <polygon class="cls-1" points="2010.04 1253.56 1791.6 1571.34 1597.04 1471.31 1809.62 1141.74 2010.04 1253.56"/>
      <path class="cls-5" d="m1791.6,1575.65c-.67,0-1.34-.15-1.97-.48l-194.56-100.03c-1.08-.56-1.88-1.54-2.19-2.72-.31-1.18-.12-2.43.54-3.45l212.58-329.57c1.23-1.91,3.74-2.54,5.72-1.43l200.42,111.82c1.06.59,1.82,1.6,2.1,2.78.28,1.18.04,2.42-.65,3.42l-218.44,317.77c-.83,1.21-2.17,1.87-3.56,1.87Zm-188.36-106l186.96,96.12,213.61-310.75-192.75-107.55-207.81,322.17Z"/>
    </g>
    <g>
      <path class="cls-1" d="m1809.89,1244.58c22.83,12.92,80.85,47.26,101.25,59.35,4.2,2.49,9.55,1.6,12.75-2.08h0c4.08-4.71,2.96-11.96-2.36-15.21l-100.19-61.32c-4.7-2.88-10.85-1.45-13.8,3.22l-1.2,1.89c-3.07,4.87-1.47,11.32,3.55,14.16Z"/>
      <path class="cls-5" d="m1916.26,1309.65c-2.51,0-5.03-.66-7.32-2.01-17.89-10.61-78.07-46.23-101.17-59.31-3.46-1.96-5.89-5.15-6.86-9.01-.97-3.86-.33-7.84,1.79-11.2l1.2-1.89c4.18-6.62,13.01-8.68,19.69-4.59l100.19,61.32c3.62,2.21,6.06,5.89,6.71,10.08.65,4.19-.57,8.43-3.35,11.63-2.82,3.26-6.83,4.98-10.89,4.98Zm-100.17-81.5c-1.92,0-3.81.95-4.9,2.69l-1.2,1.89c-.85,1.35-1.11,2.95-.72,4.5.39,1.54,1.36,2.82,2.75,3.6h0c22.54,12.76,78.37,45.78,101.32,59.39,2.39,1.42,5.46.92,7.29-1.2,1.11-1.29,1.6-2.99,1.34-4.67-.26-1.68-1.24-3.15-2.69-4.04l-100.19-61.32c-.93-.57-1.97-.84-3-.84Z"/>
    </g>
    <g>
      <path class="cls-1" d="m1802.09,1307.51c22.83,12.92,56.89,31.45,77.29,43.54,4.2,2.49,9.55,1.6,12.75-2.08h0c4.08-4.71,2.96-11.96-2.36-15.21l-76.24-45.52c-4.7-2.88-10.85-1.45-13.8,3.22l-1.2,1.89c-3.07,4.87-1.47,11.32,3.55,14.16Z"/>
      <path class="cls-5" d="m1884.5,1356.77c-2.51,0-5.03-.66-7.32-2.01-13.08-7.75-31.66-18.08-49.63-28.08-10-5.56-19.44-10.81-27.59-15.42h0c-3.46-1.96-5.89-5.16-6.86-9.01-.97-3.86-.33-7.84,1.79-11.2l1.2-1.89c4.18-6.62,13.02-8.68,19.69-4.59l76.2,45.49c3.66,2.24,6.1,5.91,6.75,10.1.65,4.19-.57,8.43-3.35,11.63-2.82,3.26-6.83,4.98-10.89,4.98Zm-80.29-53.01c8.12,4.6,17.55,9.84,27.53,15.39,18.02,10.02,36.65,20.38,49.83,28.19,2.39,1.42,5.46.92,7.29-1.2,1.11-1.29,1.6-2.99,1.34-4.67-.26-1.68-1.24-3.15-2.69-4.04l-76.2-45.49c-2.72-1.66-6.26-.84-7.94,1.82l-1.2,1.89c-.85,1.35-1.11,2.95-.72,4.5.39,1.54,1.36,2.82,2.75,3.61h0Z"/>
    </g>
    <g>
      <path class="cls-1" d="m1671.82,1465.1c22.83,12.92,56.89,31.45,77.29,43.54,4.2,2.49,9.55,1.6,12.75-2.08h0c4.08-4.71,2.96-11.96-2.36-15.21l-76.24-45.52c-4.7-2.88-10.85-1.45-13.8,3.22l-1.2,1.89c-3.07,4.87-1.47,11.32,3.55,14.16Z"/>
      <path class="cls-5" d="m1754.23,1514.36c-2.51,0-5.03-.66-7.32-2.01-13.08-7.75-31.66-18.08-49.63-28.08-10-5.56-19.44-10.81-27.59-15.42h0c-3.46-1.96-5.89-5.15-6.86-9.01-.97-3.86-.33-7.84,1.79-11.2l1.2-1.9c4.18-6.62,13.02-8.68,19.69-4.59l76.2,45.49c3.66,2.24,6.1,5.91,6.75,10.1.65,4.19-.57,8.43-3.35,11.63-2.82,3.26-6.83,4.98-10.89,4.98Zm-80.29-53.01c8.12,4.6,17.55,9.84,27.53,15.39,18.02,10.02,36.65,20.38,49.83,28.19,2.39,1.42,5.46.92,7.29-1.2,1.11-1.29,1.6-2.99,1.34-4.67-.26-1.68-1.24-3.15-2.69-4.04l-76.2-45.49c-2.72-1.66-6.26-.84-7.94,1.82l-1.2,1.89c-.85,1.35-1.11,2.95-.72,4.5.39,1.54,1.36,2.82,2.75,3.61h0Z"/>
    </g>
    <g>
      <path class="cls-1" d="m1973.89,1400.27c-3.13,13.5-130.37,177.4-130.37,177.4-14.19-5.12-29.39-17.97-32.27-36.11,0,0,66.07-84.18,66.56-95.45.12-3.01-1.1-5.9-3.21-9.11-5.69-8.79-17.74-20.22-25.34-44.54-10.37-33.23,49.87-82.58,57.64-78.91,3.38,1.55,16.84,15.38,30.83,31.65,18.51,21.52,37.95,47.39,36.16,55.08Z"/>
      <path class="cls-5" d="m1843.51,1581.98c-.49,0-.98-.08-1.46-.26-14.09-5.09-31.73-18.48-35.06-39.49-.19-1.18.13-2.39.87-3.34,31.58-40.23,64.77-86.03,65.65-93.03.07-1.73-.71-3.75-2.51-6.5-1.25-1.93-2.85-4.03-4.7-6.45-6.37-8.35-15.09-19.79-21.16-39.18-7.02-22.48,13.68-50.69,35.38-69.6,9.45-8.23,22.01-17.42,28.21-14.5,5.34,2.45,22.8,21.73,32.26,32.74,10.39,12.08,19.61,23.83,25.98,33.1,11.33,16.49,11.89,22.43,11.12,25.77h0c-.59,2.55-2.16,9.33-67.12,95.39-31.85,42.2-63.73,83.27-64.05,83.68-.83,1.07-2.1,1.67-3.41,1.67Zm-27.68-39.29c3.17,14.93,15.41,25.02,26.26,29.78,48.72-62.82,124.78-163.21,127.59-173.17.53-3.55-8.41-20.11-35.23-51.29-14.7-17.09-25.85-28.16-28.97-30.29-5.51.96-26.85,16.51-41.3,37-7.02,9.96-14.6,24.37-10.82,36.46,5.61,17.94,13.8,28.68,19.78,36.52,1.96,2.57,3.65,4.78,5.06,6.96,2.85,4.32,4.05,7.92,3.9,11.63-.11,2.51-.36,8.37-34.3,54.34-13.88,18.8-27.87,36.8-31.97,42.06Zm153.85-143.41h0s0,0,0,0h0Z"/>
    </g>
    <g>
      <polygon class="cls-3" points="1878.15 2899.02 1878.15 2997.31 1310.68 2998.69 1310.68 2899.02 1878.15 2899.02"/>
      <path class="cls-5" d="m1310.68,3003c-1.14,0-2.24-.45-3.04-1.26-.81-.81-1.27-1.91-1.27-3.05v-99.67c0-2.38,1.93-4.31,4.31-4.31h567.47c2.38,0,4.31,1.93,4.31,4.31v98.29c0,2.38-1.92,4.3-4.3,4.31l-567.47,1.38h-.01Zm4.31-99.67v91.04l558.85-1.36v-89.68h-558.85Z"/>
    </g>
    <g>
      <polygon class="cls-3" points="1878.15 2997.31 1878.15 3499.97 1310.68 3499.97 1310.68 2998.69 1878.15 2997.31"/>
      <path class="cls-5" d="m1878.15,3504.28h-567.47c-2.38,0-4.31-1.93-4.31-4.31v-501.29c0-2.38,1.92-4.3,4.3-4.31l567.47-1.38h.01c1.14,0,2.24.45,3.04,1.26.81.81,1.27,1.91,1.27,3.05v502.67c0,2.38-1.93,4.31-4.31,4.31Zm-563.16-8.62h558.85v-494.03l-558.85,1.36v492.68Z"/>
    </g>
    <g>
      <rect class="cls-1" x="1733.12" y="3101.6" width="84" height="79.9"/>
      <path class="cls-5" d="m1817.12,3185.81h-84c-2.38,0-4.31-1.93-4.31-4.31v-79.9c0-2.38,1.93-4.31,4.31-4.31h84c2.38,0,4.31,1.93,4.31,4.31v79.9c0,2.38-1.93,4.31-4.31,4.31Zm-79.69-8.62h75.38v-71.28h-75.38v71.28Z"/>
    </g>
    <g>
      <polygon class="cls-3" points="1948.76 2997.31 1948.76 3074.16 1878.15 2997.31 1878.15 2898.99 1948.76 2997.31"/>
      <path class="cls-5" d="m1948.77,3078.47c-1.18,0-2.34-.49-3.18-1.39l-70.61-76.85c-.73-.8-1.14-1.84-1.14-2.92v-98.32c0-1.87,1.21-3.53,2.99-4.1,1.78-.57,3.73.07,4.82,1.59l70.61,98.32c.53.73.81,1.61.81,2.51v76.85c0,1.78-1.09,3.37-2.75,4.02-.51.2-1.04.29-1.56.29Zm-66.3-82.84l61.99,67.47v-64.4l-61.99-86.32v83.25Z"/>
    </g>
    <g>
      <polygon class="cls-3" points="1948.76 3074.16 1948.76 3500 1878.15 3500 1878.15 2997.31 1948.76 3074.16"/>
      <path class="cls-5" d="m1948.76,3504.31h-70.61c-2.38,0-4.31-1.93-4.31-4.31v-502.69c0-1.78,1.09-3.37,2.75-4.02,1.66-.65,3.54-.21,4.74,1.1l70.61,76.85c.73.8,1.14,1.84,1.14,2.92v425.84c0,2.38-1.93,4.31-4.31,4.31Zm-66.3-8.62h61.99v-419.85l-61.99-67.47v487.32Z"/>
    </g>
    <g>
      <polygon class="cls-1" points="1665.59 3101.17 1585.95 3066.55 1585.95 3231.83 1665.59 3272.98 1665.59 3101.17"/>
      <path class="cls-5" d="m1665.59,3277.29c-.68,0-1.36-.16-1.98-.48l-79.64-41.16c-1.43-.74-2.33-2.22-2.33-3.83v-165.27c0-1.45.73-2.81,1.95-3.61,1.21-.79,2.75-.93,4.08-.35l79.64,34.62c1.57.68,2.59,2.24,2.59,3.95v171.81c0,1.5-.78,2.9-2.07,3.68-.69.42-1.46.63-2.24.63Zm-75.33-48.09l71.02,36.7v-161.9l-71.02-30.87v156.07Z"/>
    </g>
    <g>
      <polygon class="cls-1" points="1585.95 3231.83 1585.95 3499.99 1665.59 3499.99 1665.59 3272.98 1585.95 3231.83"/>
      <path class="cls-5" d="m1665.59,3504.3h-79.64c-2.38,0-4.31-1.93-4.31-4.31v-268.16c0-1.5.78-2.9,2.07-3.68,1.28-.78,2.88-.84,4.22-.15l79.64,41.16c1.43.74,2.33,2.22,2.33,3.83v227c0,2.38-1.93,4.31-4.31,4.31Zm-75.33-8.62h71.02v-220.07l-71.02-36.7v256.77Z"/>
    </g>
    <path class="cls-5" d="m2454.12,3071.29c-.16,0-.32,0-.48-.03-2.37-.26-4.07-2.39-3.81-4.76l23.29-210.91c.26-2.37,2.4-4.07,4.76-3.81,2.37.26,4.07,2.39,3.81,4.76l-23.29,210.91c-.24,2.21-2.11,3.84-4.28,3.84Z"/>
    <path class="cls-5" d="m2345.31,3001.89c-.28,0-.56-.03-.85-.08-2.33-.47-3.85-2.74-3.38-5.07.15-.74,14.67-74.35,8.17-118.09-21.42-144.11-77.2-217.57-77.76-218.3-1.46-1.88-1.11-4.59.77-6.05,1.88-1.46,4.59-1.12,6.05.77.59.76,14.68,19.11,31.62,55.82,15.56,33.73,36.49,89.99,47.86,166.49,6.72,45.23-7.63,117.97-8.25,121.05-.41,2.05-2.21,3.47-4.22,3.47Z"/>
    <path class="cls-5" d="m4538.99,3503.02c-.18,0-.36-.01-.54-.03-2.36-.3-4.04-2.45-3.74-4.81.34-2.76,34.95-276.91,72.91-385.36.79-2.25,3.25-3.43,5.49-2.65,2.25.79,3.43,3.25,2.65,5.49-37.66,107.59-72.15,380.84-72.49,383.58-.27,2.18-2.13,3.78-4.27,3.78Z"/>
    <g>
      <path class="cls-1" d="m4525.3,3374.43c29.68-69.79-106.72-154.87-171.93-159.45,0,0,42.86,185.4,171.93,159.45Z"/>
      <path class="cls-5" d="m4501.1,3381.23c-21.12,0-41.02-5.71-59.39-17.1-20.18-12.5-38.5-31.82-54.44-57.41-26.92-43.22-37.66-88.84-38.1-90.76-.31-1.33.03-2.73.92-3.77.89-1.04,2.21-1.6,3.58-1.5,49.38,3.46,134.99,50.06,167.22,102.73,13.72,22.42,16.54,43.51,8.37,62.71-.56,1.31-1.72,2.26-3.12,2.54-8.52,1.71-16.88,2.57-25.05,2.57Zm24.2-6.79h0,0Zm-166.19-154.52c3.82,13.76,14.91,49.28,35.58,82.41,34.06,54.58,76.94,77.56,127.48,68.32,5.93-15.94,3.04-33.67-8.63-52.73-28.85-47.12-106.57-91.49-154.43-98Z"/>
    </g>
    <path class="cls-5" d="m4554.67,3406.4c-1.34,0-2.67-.63-3.51-1.8-1.38-1.94-.94-4.63,1-6.01,1.25-.89,124.93-89.37,159.27-116.98,1.86-1.49,4.57-1.2,6.06.66,1.49,1.86,1.2,4.57-.66,6.06-34.53,27.76-158.41,116.38-159.66,117.27-.76.54-1.64.8-2.5.8Z"/>
    <path class="cls-5" d="m4550.91,3405.72c-1.14,0-2.27-.45-3.12-1.33-.4-.42-40.43-42.35-74.44-75.08l-34.47-33.17c-1.72-1.65-1.77-4.38-.12-6.1,1.65-1.71,4.38-1.77,6.1-.12l34.47,33.17c34.15,32.86,74.3,74.92,74.7,75.34,1.64,1.72,1.58,4.45-.14,6.09-.83.8-1.91,1.19-2.97,1.19Z"/>
    <g>
      <polygon class="cls-1" points="1585.95 3066.55 1047.29 3066.55 1047.29 3241.03 1585.95 3231.49 1585.95 3066.55"/>
      <path class="cls-5" d="m1047.29,3245.34c-1.13,0-2.21-.44-3.02-1.24-.83-.81-1.29-1.92-1.29-3.08v-174.48c0-2.38,1.93-4.31,4.31-4.31h538.65c2.38,0,4.31,1.93,4.31,4.31v164.94c0,2.35-1.88,4.27-4.23,4.31l-538.65,9.54h-.08Zm4.31-174.48v165.78l530.03-9.39v-156.39h-530.03Z"/>
    </g>
    <g>
      <polygon class="cls-1" points="1047.29 3241.03 1047.29 3499.99 1585.95 3499.99 1585.95 3231.49 1047.29 3241.03"/>
      <path class="cls-5" d="m1585.95,3504.3h-538.65c-2.38,0-4.31-1.93-4.31-4.31v-258.95c0-2.35,1.88-4.27,4.23-4.31l538.65-9.54c1.12,0,2.27.42,3.1,1.24s1.29,1.92,1.29,3.08v268.5c0,2.38-1.93,4.31-4.31,4.31Zm-534.34-8.62h530.03v-259.8l-530.03,9.39v250.41Z"/>
    </g>
    <g>
      <rect class="cls-3" x="1108.92" y="3206.42" width="139.86" height="110.78"/>
      <path class="cls-5" d="m1248.78,3321.51h-139.86c-2.38,0-4.31-1.93-4.31-4.31v-110.78c0-2.38,1.93-4.31,4.31-4.31h139.86c2.38,0,4.31,1.93,4.31,4.31v110.78c0,2.38-1.93,4.31-4.31,4.31Zm-135.55-8.62h131.24v-102.16h-131.24v102.16Z"/>
    </g>
    <g>
      <rect class="cls-3" x="1351.94" y="3148.25" width="135.71" height="47.77"/>
      <path class="cls-5" d="m1487.65,3200.34h-135.71c-2.38,0-4.31-1.93-4.31-4.31v-47.77c0-2.38,1.93-4.31,4.31-4.31h135.71c2.38,0,4.31,1.93,4.31,4.31v47.77c0,2.38-1.93,4.31-4.31,4.31Zm-131.4-8.62h127.08v-39.15h-127.08v39.15Z"/>
    </g>
    <g>
      <path class="cls-1" d="m1446.27,1610.02c-1.91,4.68.33,10.02,5.02,11.92,43.14,17.54,236.36,96.08,237.76,96.42.72.18,11.82,1.31,23.66,2.5,8.93.89,13.67-10.27,6.82-16.08l-17.76-15.04c-.86-.73-1.86-1.3-2.93-1.67l-241.12-83.25c-4.59-1.58-9.62.69-11.45,5.19h0Z"/>
      <path class="cls-5" d="m1713.71,1725.22c-.47,0-.95-.02-1.43-.07-23.04-2.31-23.74-2.48-24.25-2.6-.53-.13-1.78-.43-238.36-96.61-3.33-1.35-5.93-3.92-7.33-7.24-1.4-3.31-1.42-6.98-.06-10.31,2.7-6.61,10.1-9.96,16.85-7.63l241.12,83.25c1.58.55,3.03,1.37,4.3,2.45l17.76,15.04c4.59,3.89,6.04,9.98,3.69,15.52-2.16,5.1-6.9,8.21-12.3,8.21Zm-23.57-11.05c1.09.15,5.54.65,23,2.4,3.3.33,4.61-2.15,4.93-2.92.33-.77,1.19-3.44-1.32-5.57l-17.76-15.04c-.46-.39-.98-.68-1.55-.88l-241.12-83.25c-2.43-.84-5.08.37-6.05,2.74,0,0,0,0,0,0-.49,1.2-.48,2.51.02,3.7.5,1.19,1.43,2.11,2.63,2.6,110.58,44.95,229.82,93.38,237.23,96.22Zm-243.87-104.15h0,0Z"/>
    </g>
    <g>
      <path class="cls-1" d="m1379.15,1736.72s84.9,7.36,100.29,15.33c37.02,20.92,72.72,29.95,106.8-9.53s32.61-61.29,32.61-61.29c0,0,48.23,3.2,46.85-17.59-1.38-20.79-107.6-33.23-121.95-32.73-14.35.5-43.14,25.16-59.42,31.31-16.28,6.15-103.81-8.19-103.81-8.19l-1.37,82.69Z"/>
      <path class="cls-5" d="m1533.65,1774.26c-19.55,0-38.67-8.48-56.26-18.41-12.16-6.21-75.28-12.81-98.62-14.83-2.26-.2-3.98-2.1-3.94-4.37l1.37-82.69c.02-1.25.58-2.43,1.55-3.24.96-.8,2.22-1.15,3.46-.95,34.73,5.69,90.44,12.62,101.59,8.41,6.3-2.38,15.23-8.12,23.88-13.68,14.05-9.03,27.31-17.56,36.92-17.9,8.16-.28,38.96,2.94,66.83,8.46,52.41,10.37,59.1,21.11,59.58,28.29.31,4.68-1.3,8.92-4.65,12.28-9.74,9.74-32.71,10.31-42.53,10.08-1.28,8.78-7.18,29.33-33.32,59.63-18.37,21.28-37.3,28.92-55.85,28.92Zm-150.12-41.48c18.35,1.67,83.63,8.05,97.9,15.44.05.02.09.05.14.07,32.82,18.54,67.82,30.33,101.41-8.6,32.1-37.19,31.58-58.03,31.57-58.24-.08-1.24.38-2.43,1.25-3.31.88-.88,2.1-1.31,3.33-1.23,8.55.56,32.41.33,40.13-7.39,1.61-1.61,2.29-3.39,2.14-5.61-.07-1.04-2.13-10.4-52.65-20.4-28.15-5.57-57.98-8.52-64.85-8.3-7.24.25-20.69,8.9-32.56,16.54-9.43,6.07-18.34,11.79-25.49,14.49-15.13,5.71-81.11-4.04-101.11-7.18l-1.22,73.71Z"/>
    </g>
    <g>
      <path class="cls-3" d="m1208.56,1064.19c-42.1,16.43-88.7,31.22-139.19,92.52-67.51,79.58-168.16,238.43-61.54,421.22,148.17,182.79,378.01,176.66,388.58,178.35,11.01,1.76,59.2-6.75,51.41-97.11-1.98-4.6-37.91-23.37-37.91-23.37,0,0-255.3-100.11-264.3-160.35-9-60.24,7.62-157.17,7.62-157.17l55.33-254.1Z"/>
      <path class="cls-5" d="m1399.15,1760.78c-1.33,0-2.48-.09-3.42-.24-.59-.09-3.16-.19-5.87-.3-20.24-.79-81.85-3.18-155.92-26.6-94.09-29.76-171.29-81.23-229.46-152.99-.14-.17-.26-.35-.38-.54-47.37-81.2-59.13-166.2-34.96-252.65,16.4-58.66,49.02-117.05,96.93-173.53,47.65-57.85,92.48-75.1,132.05-90.32,2.98-1.15,5.93-2.28,8.87-3.43,2.22-.87,4.72.23,5.58,2.45.87,2.22-.23,4.72-2.45,5.58-2.95,1.15-5.91,2.29-8.9,3.44-40.45,15.56-82.28,31.66-128.53,87.81-82.15,96.83-159.4,247.54-61.31,416.02,117.74,145.02,287.85,172.62,378.81,176.15,4.13.16,5.85.23,6.9.4,3.42.54,15.66-.23,26.79-10.58,11.18-10.4,23.62-32.82,19.74-80.66-3.54-3.39-20.65-13.28-35.51-21.06-4.19-1.65-66.43-26.34-128.91-57.66-87.52-43.87-133.9-79.53-137.86-105.98-9-60.23,6.95-154.55,7.63-158.54.4-2.35,2.64-3.92,4.98-3.52,2.35.4,3.92,2.63,3.52,4.98-.17.96-16.4,96.95-7.6,155.81,7.08,47.39,191.24,129.38,261.61,156.97.14.06.29.12.42.19.09.05,9.16,4.79,18.35,10.04,19.71,11.25,20.8,13.77,21.52,15.44.18.42.3.88.34,1.34,4.5,52.16-9.68,77.16-22.36,88.95-11.16,10.37-23.44,13.02-30.61,13.02Z"/>
    </g>
    <path class="cls-4" d="m4115.5,753.89h790.2s6.98-68.9-54.95-104.66c-61.92-35.76-214.56,24.42-214.56,24.42,0,0-1.74-48.84-47.97-41.86,30.53-35.76-13.95-135.19-133.44-131.7-119.49,3.49-125.59,133.44-125.59,133.44,0,0-68.03-68.03-153.5-23.55-85.47,44.48-60.18,143.91-60.18,143.91Z"/>
    <path class="cls-4" d="m4445.18,890.83s-281.42-62.22-285.49-9.88c-4.07,52.33,285.49,9.88,285.49,9.88Z"/>
    <g>
      <path class="cls-1" d="m1428.45,1426.99s-44.02-314.16-127.81-400.36c-31.21-8.9-103.81,32.78-103.81,32.78,0,0,43.71,17.76,74.79,102.74l21.81,46.22,53.49,2.6-49.33,61.8s100.22,79.45,120.47,158.9c4.33,10.39,6.4,14.19,6.4,14.19l3.98-18.87Z"/>
      <path class="cls-5" d="m1424.47,1450.17c-1.56,0-3.02-.85-3.78-2.25-.09-.16-2.24-4.13-6.6-14.6-.08-.19-.15-.39-.2-.59-19.65-77.11-117.99-155.8-118.98-156.59-.9-.71-1.48-1.75-1.6-2.89-.13-1.14.2-2.28.91-3.18l44.07-55.21-45.07-2.19c-1.59-.08-3.01-1.03-3.69-2.47l-21.81-46.22c-.06-.12-.11-.24-.15-.36-29.92-81.8-71.96-100.06-72.38-100.24-1.52-.63-2.55-2.07-2.66-3.71-.1-1.64.72-3.2,2.15-4.02,3.03-1.74,74.55-42.48,107.13-33.19.73.21,1.38.6,1.91,1.14,35.3,36.31,67.74,115.21,96.43,234.5,21.28,88.49,32.45,167.48,32.56,168.26.07.5.05,1-.05,1.49l-3.98,18.87c-.37,1.77-1.81,3.11-3.59,3.38-.21.03-.42.05-.63.05Zm-2.3-19.88c.27.65.54,1.28.79,1.88l1.12-5.32c-1.19-8.24-12.23-83.25-32.32-166.77-27.69-115.12-59.97-194.45-93.39-229.58-24.18-5.73-74.32,19.2-92.57,28.92,14.13,8.96,45.68,35.23,69.8,101.08l20.62,43.7,50.9,2.47c1.62.08,3.05,1.06,3.72,2.53.67,1.48.45,3.2-.56,4.46l-46.68,58.47c7.79,6.48,28.13,23.98,49.78,47.37,36.99,39.95,60.13,77.23,68.77,110.8Z"/>
    </g>
    <path class="cls-5" d="m1393.17,1014.72c-2.31,0-4.22-1.82-4.3-4.15-.09-2.38,1.76-4.38,4.14-4.47l53.9-2.05c2.4-.11,4.38,1.76,4.47,4.14.09,2.38-1.76,4.38-4.14,4.47l-53.9,2.05c-.06,0-.11,0-.17,0Z"/>
    <path class="cls-3" d="m1245.15,736.89s-15.88,22.02-7.17,25.61c8.71,3.59,39.44-19.98,39.44-19.98,0,0,43.02-40.46,42.51-50.71-.51-10.24-13.32-9.22-13.32-9.22l-61.46,54.29Z"/>
    <g>
      <g>
        <path class="cls-1" d="m3633.96,910.53l-1362.54,512.29s0,.04.04.08l654.3,2077.08,1064.04-384.48,419.02-151.4-774.87-2053.56Z"/>
        <path class="cls-5" d="m2925.76,3504.29c-.66,0-1.31-.15-1.91-.45-1.05-.52-1.85-1.45-2.2-2.57l-654.24-2076.88c-.2-.51-.3-1.04-.3-1.58,0-1.8,1.11-3.4,2.79-4.04l1362.54-512.29c2.23-.84,4.71.29,5.55,2.51l774.87,2053.57c.41,1.08.37,2.28-.12,3.33-.48,1.05-1.37,1.86-2.45,2.25l-419.02,151.4-1064.04,384.48c-.47.17-.97.26-1.47.26Zm-648.99-2078.88l651.75,2068.98,1059.82-382.96,414.91-149.92-771.8-2045.45-1354.67,509.34Z"/>
      </g>
      <g>
        <path class="cls-1" d="m3690.79,1761.81l-94.08,37.89c-18.07,6.27-37.8-3.3-44.06-21.36h0c-6.27-18.07,3.3-37.8,21.36-44.06l94.08-37.89c18.07-6.27,37.8,3.3,44.06,21.36h0c6.27,18.07-3.3,37.8-21.36,44.06Z"/>
        <path class="cls-5" d="m3585.39,1805.92c-16.13,0-31.24-10.1-36.82-26.18-7.03-20.25,3.71-42.44,23.92-49.51l93.98-37.85c.07-.03.13-.05.2-.07,20.28-7.04,42.51,3.74,49.55,24.02,7.03,20.25-3.71,42.44-23.92,49.51l-93.99,37.85c-.07.03-.13.05-.2.07-4.21,1.46-8.5,2.15-12.73,2.15Zm11.32-6.23h0,0Zm72.89-99.28l-93.98,37.85c-.07.03-.13.05-.2.07-15.79,5.48-24.18,22.78-18.71,38.58,5.47,15.76,22.71,24.15,38.48,18.74l93.98-37.85c.07-.03.13-.05.2-.07,15.79-5.48,24.18-22.78,18.71-38.58-5.47-15.76-22.71-24.15-38.48-18.74Z"/>
      </g>
      <g>
        <rect class="cls-1" x="2672.32" y="1865.6" width="229.18" height="229.18" rx="16.85" ry="16.85" transform="translate(-495.08 1022.82) rotate(-19.13)"/>
        <path class="cls-5" d="m2726.62,2125.73c-8.77,0-16.98-5.49-20.01-14.23l-64.07-184.68c-3.82-11.02,2.03-23.1,13.06-26.93l184.68-64.07c11.03-3.82,23.1,2.03,26.93,13.06l64.07,184.68c1.85,5.34,1.51,11.08-.95,16.17-2.47,5.09-6.77,8.91-12.11,10.76l-184.68,64.07c-2.29.79-4.62,1.17-6.92,1.17Zm120.6-282.46c-1.38,0-2.77.23-4.12.7l-184.68,64.07c-3.16,1.1-5.71,3.36-7.17,6.38-1.46,3.01-1.66,6.42-.56,9.58l64.07,184.68c2.27,6.53,9.43,10,15.96,7.74l184.68-64.07h0c3.16-1.1,5.71-3.36,7.17-6.38,1.46-3.01,1.66-6.42.56-9.58l-64.07-184.68c-1.1-3.16-3.36-5.71-6.38-7.17-1.73-.84-3.59-1.26-5.46-1.26Z"/>
      </g>
      <g>
        <rect class="cls-3" x="2713" y="1906.28" width="147.82" height="147.82" rx="13.3" ry="13.3" transform="translate(6068.89 2937.58) rotate(160.87)"/>
        <path class="cls-5" d="m2749.49,2074.94c-2.62,0-5.24-.59-7.67-1.77-4.23-2.05-7.41-5.63-8.95-10.07l-39.73-114.54c-3.18-9.17,1.69-19.22,10.86-22.4h0l114.54-39.73c9.17-3.18,19.22,1.69,22.4,10.86l39.74,114.54c3.18,9.17-1.69,19.22-10.86,22.4l-114.54,39.74c-1.89.66-3.84.98-5.79.98Zm-42.66-140.64c-4.68,1.62-7.17,6.75-5.54,11.43l39.73,114.54c.79,2.27,2.41,4.09,4.57,5.14,2.16,1.05,4.6,1.19,6.86.4l114.54-39.74c4.68-1.62,7.17-6.75,5.54-11.43l-39.74-114.54c-1.62-4.68-6.76-7.17-11.43-5.54l-114.54,39.73Z"/>
      </g>
      <g>
        <path class="cls-1" d="m3633.01,1022.63c-164.28,68.78-914.02,373.11-1093.42,445.9,36.18-101.94-115.02-335.83-285.5-305.57,207.65-85.56,1303.13-536.72,1341.53-548.13,42.45-12.65,205.32-7.53,226.3,128.24,24.75,160.11-1.95,201.32-188.91,279.55Z"/>
        <path class="cls-5" d="m2539.59,1472.84c-1.09,0-2.16-.41-2.98-1.2-1.23-1.17-1.65-2.96-1.08-4.56,17.7-49.87-11.61-135.85-69.69-204.43-62.18-73.42-139.09-108.21-211-95.45-2.17.38-4.28-.93-4.89-3.04-.62-2.11.46-4.35,2.5-5.19,217.32-89.54,1303.36-536.81,1341.95-548.28,28.58-8.51,106.11-9.14,164.3,27.67,37.8,23.91,60.51,58.92,67.48,104.05,25.19,162.99-3.47,205.51-191.5,284.19h0c-154.2,64.56-816.06,333.35-1093.46,445.92-.52.21-1.07.32-1.62.32Zm-254.89-316.89c29.66,0,59.6,7.36,89.36,22,35.15,17.29,69.15,44.66,98.35,79.13,28.67,33.85,51.66,73.5,64.75,111.66,12.17,35.49,15.27,67.2,9.11,92.42,282.06-114.46,932.43-378.61,1085.07-442.52,0,0,0,0,0,0,85.61-35.82,144.24-66.3,171.93-107.5,27.38-40.73,26-92.23,14.38-167.42-6.58-42.56-27.96-75.56-63.57-98.08-55.17-34.89-130.82-34.56-157.24-26.69-36.82,10.94-1047.29,426.94-1314.46,537,.77,0,1.54-.02,2.31-.02Z"/>
      </g>
      <g>
        <rect class="cls-1" x="2898.74" y="1654.19" width="869.29" height="69.25" rx="34.63" ry="34.63" transform="translate(-369.39 1185.84) rotate(-19.13)"/>
        <path class="cls-5" d="m2955.5,1858.87c-16.13,0-31.24-10.1-36.82-26.18-7.04-20.28,3.74-42.51,24.02-49.55l755.84-262.22c20.28-7.04,42.51,3.74,49.55,24.02s-3.74,42.51-24.02,49.55l-755.84,262.22c-4.21,1.46-8.5,2.15-12.73,2.15Zm755.78-331.48c-3.29,0-6.63.54-9.91,1.68l-755.84,262.22c-15.79,5.48-24.18,22.79-18.71,38.58,5.48,15.79,22.78,24.18,38.58,18.71l755.84-262.22,1.41,4.07-1.41-4.07c15.79-5.48,24.18-22.78,18.71-38.58-4.34-12.51-16.11-20.38-28.67-20.38Z"/>
      </g>
      <g>
        <rect class="cls-1" x="2954.11" y="1853.47" width="549.17" height="69.25" rx="34.63" ry="34.63" transform="translate(-440.49 1162.53) rotate(-19.13)"/>
        <path class="cls-5" d="m3001.96,2005.7c-5.8,0-11.58-1.31-16.96-3.92-9.36-4.54-16.39-12.45-19.8-22.27-3.41-9.83-2.79-20.39,1.75-29.75,4.54-9.36,12.45-16.39,22.27-19.8l453.4-157.3c9.83-3.41,20.39-2.79,29.75,1.75,9.36,4.54,16.39,12.45,19.8,22.27,3.41,9.83,2.79,20.39-1.75,29.75-4.54,9.36-12.45,16.39-22.27,19.8l-453.4,157.3c-4.18,1.45-8.5,2.17-12.79,2.17Zm453.41-226.57c-3.29,0-6.63.54-9.91,1.68l-453.4,157.3c-7.65,2.65-13.81,8.13-17.34,15.42s-4.02,15.51-1.36,23.16c2.65,7.65,8.13,13.81,15.42,17.34,7.29,3.53,15.51,4.02,23.16,1.36l453.4-157.3,1.41,4.07-1.41-4.07c15.79-5.48,24.18-22.79,18.71-38.58-4.34-12.51-16.11-20.38-28.67-20.38Z"/>
      </g>
      <g>
        <rect class="cls-1" x="2803.44" y="2236.43" width="229.18" height="229.18" rx="16.85" ry="16.85" transform="translate(-609.38 1086.28) rotate(-19.13)"/>
        <path class="cls-5" d="m2857.71,2496.57c-3.15,0-6.29-.71-9.22-2.13-5.09-2.47-8.91-6.77-10.76-12.11l-64.07-184.68c-3.82-11.02,2.03-23.1,13.06-26.93l184.68-64.07c11.03-3.82,23.1,2.03,26.93,13.06l64.07,184.68c1.85,5.34,1.52,11.08-.95,16.17-2.47,5.09-6.77,8.91-12.11,10.76l-184.68,64.07c-2.27.79-4.62,1.18-6.95,1.18Zm120.62-282.46c-1.36,0-2.74.22-4.1.69l-184.68,64.07c-3.16,1.1-5.71,3.36-7.17,6.38-1.46,3.01-1.66,6.42-.56,9.58l64.07,184.68c1.1,3.16,3.36,5.71,6.38,7.17,3.01,1.46,6.42,1.66,9.58.56l184.68-64.07c3.16-1.1,5.71-3.36,7.17-6.38,1.46-3.01,1.66-6.42.56-9.58l-64.07-184.68c-1.8-5.18-6.67-8.43-11.86-8.43Zm69.6,213.14h0,0Z"/>
      </g>
      <g>
        <rect class="cls-3" x="2844.12" y="2277.11" width="147.82" height="147.82" rx="13.3" ry="13.3" transform="translate(6445.44 3615.79) rotate(160.87)"/>
        <path class="cls-5" d="m2880.62,2445.77c-2.62,0-5.24-.59-7.67-1.77-4.23-2.05-7.41-5.63-8.95-10.07l-39.73-114.54c-1.54-4.44-1.26-9.22.79-13.45,2.05-4.23,5.63-7.41,10.07-8.95l114.54-39.73c4.44-1.54,9.22-1.26,13.45.79,4.23,2.05,7.41,5.63,8.95,10.07l39.74,114.54c1.54,4.44,1.26,9.22-.79,13.45-2.05,4.23-5.63,7.41-10.07,8.95l-114.54,39.74c-1.89.66-3.84.98-5.78.98Zm-44.08-144.71l1.41,4.07c-2.27.79-4.09,2.41-5.14,4.57-1.05,2.16-1.19,4.6-.4,6.86l39.73,114.54c.79,2.27,2.41,4.09,4.57,5.14,2.16,1.05,4.6,1.19,6.86.4l114.54-39.74c2.27-.79,4.09-2.41,5.14-4.57,1.05-2.16,1.19-4.6.4-6.86l-39.74-114.54c-1.62-4.68-6.75-7.17-11.43-5.54l-114.54,39.73-1.41-4.07Z"/>
      </g>
      <g>
        <path class="cls-2" d="m3210.54,2183.52l-16.89,6.75-95.72,33.21c-18.07,6.27-37.8-3.3-44.06-21.36h0c-6.27-18.07,3.3-37.8,21.36-44.06l112.61-39.96c18.07-6.27,37.8,3.3,44.06,21.36h0c6.27,18.07-3.3,37.8-21.36,44.06Z"/>
        <path class="cls-5" d="m3086.62,2229.7c-16.13,0-31.24-10.1-36.82-26.18-7.04-20.28,3.74-42.51,24.02-49.55l112.58-39.95c20.31-7.05,42.54,3.73,49.58,24.01,7.03,20.25-3.71,42.44-23.93,49.52l-16.8,6.72c-.06.02-.12.05-.19.07l-95.72,33.21c-4.21,1.46-8.5,2.15-12.73,2.15Zm112.55-109.22c-3.29,0-6.63.54-9.91,1.68l-112.58,39.95c-15.82,5.49-24.21,22.79-18.73,38.59,5.48,15.79,22.78,24.18,38.58,18.71l95.62-33.17,16.8-6.72c.06-.02.12-.05.19-.07,15.79-5.48,24.18-22.78,18.71-38.58-4.34-12.51-16.11-20.38-28.67-20.38Zm-5.51,69.79h0,0Z"/>
      </g>
      <g>
        <rect class="cls-1" x="2936.62" y="2611.36" width="229.18" height="229.18" rx="16.85" ry="16.85" transform="translate(-724.91 1150.64) rotate(-19.13)"/>
        <path class="cls-5" d="m2990.88,2871.5c-3.15,0-6.29-.71-9.22-2.13-5.09-2.47-8.91-6.77-10.76-12.11l-64.07-184.68c-3.82-11.02,2.03-23.1,13.06-26.93l184.68-64.07c5.34-1.85,11.08-1.51,16.17.95,5.09,2.47,8.91,6.77,10.76,12.11l64.07,184.68c3.82,11.02-2.03,23.1-13.06,26.93h0s-184.68,64.07-184.68,64.07c-2.27.79-4.62,1.18-6.95,1.18Zm120.64-282.47c-1.38,0-2.77.23-4.12.7l-184.68,64.07c-6.53,2.27-10,9.42-7.74,15.96l64.07,184.68c1.1,3.16,3.36,5.71,6.38,7.17,3.01,1.46,6.42,1.66,9.58.56l184.68-64.07c6.53-2.27,10-9.43,7.74-15.96l-64.07-184.68c-1.1-3.16-3.36-5.71-6.38-7.17-1.73-.84-3.59-1.26-5.46-1.26Zm69.58,213.15h0,0Z"/>
      </g>
      <g>
        <rect class="cls-1" x="2977.29" y="2652.04" width="147.82" height="147.82" rx="13.3" ry="13.3" transform="translate(6827.31 4301.29) rotate(160.87)"/>
        <path class="cls-5" d="m3013.79,2820.7c-2.62,0-5.24-.59-7.67-1.77-4.23-2.05-7.41-5.63-8.95-10.07l-39.73-114.54c-3.18-9.17,1.69-19.22,10.86-22.4h0s114.54-39.74,114.54-39.74c9.18-3.18,19.22,1.69,22.4,10.86l39.74,114.54c3.18,9.17-1.69,19.22-10.86,22.4l-114.54,39.74c-1.89.66-3.84.98-5.79.98Zm-42.66-140.64h0c-4.68,1.62-7.17,6.75-5.54,11.43l39.74,114.54c.79,2.27,2.41,4.09,4.57,5.14s4.6,1.19,6.86.4l114.54-39.74c4.68-1.62,7.17-6.75,5.54-11.43l-39.74-114.54c-1.62-4.68-6.76-7.17-11.43-5.54l-114.54,39.73Z"/>
      </g>
      <g>
        <path class="cls-2" d="m2539.59,1468.53c-6.38,17.99-18.59,31.87-37.56,39.46-143.56,57.39-228.37-81.48-230.55-85.1l50.84,301.34s-512.01-171.23-158.9-518.79c30.21-23.74,60.73-37.19,90.68-42.48,170.49-30.26,321.69,203.62,285.5,305.57Z"/>
        <path class="cls-5" d="m2322.32,1728.54c-.46,0-.92-.07-1.37-.22-.61-.2-61.37-20.74-125.9-60.98-37.98-23.68-69.86-49.48-94.76-76.66-31.3-34.18-51.61-70.68-60.35-108.49-20.17-87.15,20.36-181.3,120.46-279.82.11-.11.23-.22.36-.32,29.38-23.09,60.53-37.67,92.59-43.33,39.81-7.07,80.42-.59,120.73,19.24,35.15,17.29,69.15,44.66,98.35,79.13,28.67,33.85,51.66,73.5,64.75,111.66,13.64,39.76,15.88,74.76,6.49,101.22h0c-7.13,20.11-20.6,34.25-40.03,42.02-33.54,13.41-66.73,17.34-98.63,11.67-25.61-4.55-50.43-15.26-73.75-31.82-24.14-17.15-41.85-37.23-52.34-50.86l47.67,282.53c.25,1.49-.3,3.01-1.45,3.99-.79.68-1.79,1.04-2.8,1.04Zm-156.05-519.86c-97.67,96.2-137.36,187.57-117.94,271.54,19.07,82.49,92.71,143.25,151.12,179.7,51.14,31.91,99.86,51.27,117.39,57.77l-49.62-294.08c-.34-2.04.81-4.04,2.75-4.76,1.94-.72,4.12.04,5.19,1.82.89,1.48,22.35,36.65,61.07,64.14,50.71,36.01,105.95,42.47,164.2,19.18,17.02-6.81,28.83-19.22,35.1-36.9,0,0,0,0,0,0,17.7-49.87-11.61-135.85-69.69-204.43-62.18-73.42-139.09-108.21-211-95.45-30.58,5.4-60.38,19.36-88.58,41.48Z"/>
      </g>
      <g>
        <path class="cls-6" d="m2458.33,1247.73l-271.01,127.33,372.89,964.49-288.77-916.72,240.2-100.93c-14.15-28.08-31.49-53.2-53.32-74.17Z"/>
        <path class="cls-6" d="m2560.21,2343.86c-1.73,0-3.36-1.05-4.02-2.76l-372.89-964.49c-.82-2.11.14-4.49,2.19-5.46l271.01-127.33c1.62-.76,3.53-.44,4.82.79,21.16,20.32,38.88,44.97,54.18,75.34.54,1.07.61,2.31.19,3.43-.41,1.12-1.27,2.02-2.38,2.48l-236.58,99.41,287.59,912.97c.7,2.22-.49,4.59-2.69,5.36-.47.17-.95.24-1.43.24Zm-367.42-966.61l322.69,834.65-248.15-787.78c-.67-2.12.39-4.41,2.44-5.27l235.92-99.13c-13.84-26.6-29.67-48.52-48.23-66.82l-264.67,124.35Z"/>
      </g>
      <g>
        <g>
          <rect class="cls-3" x="2963.57" y="1483.9" width="113.32" height="113.32" rx="23.04" ry="23.04" transform="translate(-345.78 1134.23) rotate(-20.14)"/>
          <path class="cls-5" d="m3000.23,1611.06c-3.92,0-7.82-.85-11.48-2.55-6.63-3.07-11.66-8.54-14.18-15.4l-23.15-63.13c-2.52-6.86-2.21-14.28.86-20.91,3.07-6.63,8.54-11.66,15.4-14.18l63.13-23.15c6.86-2.52,14.28-2.21,20.91.86,6.63,3.07,11.66,8.54,14.18,15.4l23.16,63.13c2.52,6.86,2.21,14.28-.86,20.91-3.07,6.63-8.54,11.66-15.4,14.18l-63.13,23.15c-3.07,1.13-6.26,1.69-9.43,1.69Zm40-132.38c-2.17,0-4.36.38-6.46,1.16l-63.13,23.15c-4.7,1.72-8.44,5.17-10.54,9.71-2.1,4.54-2.31,9.62-.59,14.32l23.15,63.13c3.56,9.69,14.33,14.69,24.03,11.13l63.13-23.15c4.7-1.72,8.44-5.17,10.54-9.71,2.1-4.54,2.31-9.62.59-14.32l-23.16-63.13c-1.72-4.7-5.17-8.44-9.71-10.54-2.51-1.16-5.18-1.74-7.86-1.74Z"/>
        </g>
        <g>
          <rect class="cls-3" x="3128.12" y="1428.8" width="84.68" height="113.32" rx="23.04" ry="23.04" transform="translate(-317.62 1182.59) rotate(-20.14)"/>
          <path class="cls-5" d="m3163.9,1551.03c-3.92,0-7.82-.85-11.48-2.55-6.63-3.07-11.66-8.54-14.18-15.4l-23.16-63.13c-5.19-14.16,2.1-29.9,16.26-35.09l36.24-13.29c6.86-2.51,14.29-2.21,20.91.86s11.66,8.54,14.18,15.4l23.15,63.13c2.52,6.86,2.21,14.29-.86,20.91-3.07,6.63-8.54,11.66-15.4,14.18l-36.24,13.29c-3.07,1.13-6.26,1.69-9.43,1.69Zm13.11-122.52c-2.18,0-4.36.38-6.46,1.16l-36.24,13.29c-4.7,1.72-8.44,5.17-10.54,9.71-2.1,4.54-2.31,9.62-.59,14.32l23.16,63.13c1.72,4.7,5.17,8.44,9.71,10.54,4.54,2.1,9.62,2.31,14.32.59l36.24-13.29h0c4.7-1.72,8.44-5.17,10.54-9.71s2.31-9.62.59-14.32l-23.15-63.13c-1.72-4.7-5.17-8.44-9.71-10.54-2.51-1.16-5.18-1.75-7.86-1.75Z"/>
        </g>
        <g>
          <rect class="cls-1" x="3269.58" y="1376.91" width="84.68" height="113.32" rx="23.04" ry="23.04" transform="translate(-291.1 1228.13) rotate(-20.14)"/>
          <path class="cls-5" d="m3305.36,1499.14c-3.92,0-7.82-.85-11.48-2.55-6.63-3.07-11.66-8.54-14.18-15.4l-23.15-63.13c-2.52-6.86-2.21-14.28.86-20.91,3.07-6.63,8.54-11.66,15.4-14.18l36.24-13.29c14.16-5.19,29.9,2.1,35.09,16.26l23.16,63.13c5.19,14.16-2.1,29.9-16.26,35.09l-36.24,13.29c-3.07,1.13-6.26,1.69-9.43,1.69Zm13.08-122.51c-2.14,0-4.31.37-6.43,1.15l-36.24,13.29c-4.7,1.72-8.44,5.17-10.54,9.71s-2.31,9.62-.59,14.32l23.15,63.13c1.72,4.7,5.17,8.44,9.71,10.54,4.54,2.1,9.62,2.31,14.32.59l36.24-13.29h0c4.7-1.72,8.44-5.17,10.54-9.71,2.1-4.54,2.31-9.62.59-14.32l-23.16-63.13c-2.78-7.57-9.97-12.28-17.6-12.28Z"/>
        </g>
        <g>
          <rect class="cls-2" x="3414.42" y="1295.01" width="241.57" height="113.32" rx="23.04" ry="23.04" transform="translate(-249.24 1300.01) rotate(-20.14)"/>
          <path class="cls-5" d="m3455,1444.26c-3.92,0-7.82-.85-11.48-2.55-6.63-3.07-11.66-8.54-14.18-15.4l-23.15-63.13c-2.52-6.86-2.21-14.29.86-20.91,3.07-6.63,8.54-11.66,15.4-14.18l183.54-67.32c6.86-2.52,14.28-2.21,20.91.86,6.63,3.07,11.66,8.54,14.18,15.4l23.15,63.13c2.52,6.86,2.21,14.29-.86,20.91-3.07,6.63-8.54,11.66-15.4,14.18l-183.54,67.32c-3.07,1.13-6.26,1.69-9.43,1.69Zm160.42-176.55c-2.17,0-4.36.38-6.46,1.16l-183.54,67.32c-4.7,1.72-8.44,5.17-10.54,9.71-2.1,4.54-2.31,9.62-.59,14.32l23.15,63.13c1.72,4.7,5.17,8.44,9.71,10.54,4.54,2.1,9.62,2.31,14.32.59l183.54-67.32h0c4.7-1.72,8.44-5.17,10.54-9.71s2.31-9.62.59-14.32l-23.15-63.13c-1.72-4.7-5.17-8.44-9.71-10.54-2.51-1.16-5.18-1.74-7.86-1.74Z"/>
        </g>
        <g>
          <rect class="cls-2" x="2898.99" y="1334.6" width="420.59" height="41.3" rx="20.65" ry="20.65" transform="translate(-276.52 1153.56) rotate(-20.14)"/>
          <path class="cls-5" d="m2931.26,1445.52c-10.18,0-19.76-6.27-23.46-16.37-4.74-12.92,1.92-27.29,14.84-32.03l356.1-130.61c12.92-4.74,27.29,1.92,32.03,14.84,4.74,12.92-1.92,27.29-14.84,32.03l-356.1,130.61c-2.83,1.04-5.72,1.53-8.57,1.53Zm356.06-171.91c-1.87,0-3.76.32-5.61,1l-356.1,130.61c-8.46,3.1-12.81,12.51-9.71,20.97,3.1,8.46,12.51,12.82,20.97,9.71l356.1-130.61c8.46-3.1,12.81-12.51,9.71-20.97-2.42-6.61-8.7-10.71-15.36-10.71Z"/>
        </g>
        <g>
          <rect class="cls-1" x="3362.29" y="1217.57" width="136.94" height="68.38" rx="26.57" ry="26.57" transform="translate(-221.22 1257.94) rotate(-20.14)"/>
          <path class="cls-5" d="m3394.03,1304.24c-4.42,0-8.83-.96-12.96-2.88-7.48-3.47-13.17-9.64-16.01-17.39l-5.25-14.31c-2.84-7.74-2.5-16.13.97-23.62,3.47-7.48,9.64-13.17,17.39-16.01l78.67-28.85c7.75-2.84,16.13-2.49,23.62.97,7.48,3.47,13.17,9.64,16.01,17.39l5.25,14.31c2.84,7.74,2.5,16.13-.97,23.62s-9.64,13.17-17.39,16.01l-78.67,28.85c-3.47,1.27-7.07,1.9-10.65,1.9Zm73.45-96.33c-2.58,0-5.18.46-7.68,1.37l-78.67,28.85c-5.58,2.05-10.03,6.15-12.53,11.54-2.5,5.4-2.75,11.44-.7,17.02l5.25,14.31c2.05,5.58,6.15,10.03,11.54,12.53,5.39,2.5,11.44,2.75,17.02.7l78.67-28.85c5.58-2.05,10.03-6.15,12.53-11.54,2.5-5.4,2.75-11.44.7-17.02l-5.25-14.31c-2.05-5.58-6.15-10.03-11.54-12.53-2.98-1.38-6.16-2.07-9.35-2.07Z"/>
        </g>
        <g>
          <rect class="cls-1" x="3516" y="1169.24" width="85.31" height="24.49" rx="12.24" ry="12.24" transform="translate(-189.2 1297.68) rotate(-20.14)"/>
          <path class="cls-5" d="m3530.09,1208.52c-2.37,0-4.73-.52-6.95-1.54-4.01-1.86-7.06-5.17-8.58-9.32-1.52-4.15-1.34-8.65.52-12.66,1.86-4.01,5.17-7.06,9.32-8.58l57.11-20.95c8.57-3.14,18.1,1.27,21.24,9.84,1.52,4.15,1.34,8.65-.52,12.66-1.86,4.01-5.17,7.06-9.32,8.58l-57.11,20.95c-1.86.68-3.79,1.02-5.71,1.02Zm57.11-45.44c-.91,0-1.83.16-2.72.49l-57.11,20.95c-1.99.73-3.58,2.19-4.47,4.11-.89,1.92-.98,4.08-.25,6.07.73,1.99,2.19,3.58,4.11,4.47,1.92.89,4.08.98,6.07.25l57.11-20.95h0c4.11-1.51,6.22-6.07,4.72-10.18-1.18-3.21-4.22-5.2-7.46-5.2Z"/>
        </g>
        <g>
          <rect class="cls-1" x="2505.49" y="1545.73" width="166.7" height="29.89" rx="14.94" ry="14.94" transform="translate(-379.09 986.91) rotate(-20.14)"/>
          <path class="cls-5" d="m2524.61,1603.49c-2.76,0-5.51-.6-8.08-1.79-4.67-2.16-8.21-6.01-9.98-10.84-1.77-4.83-1.56-10.06.61-14.72,2.16-4.67,6.01-8.21,10.84-9.98l128.45-47.11c4.83-1.77,10.06-1.56,14.72.61,4.67,2.16,8.21,6.01,9.98,10.84,1.77,4.83,1.56,10.06-.61,14.72-2.16,4.67-6.01,8.21-10.84,9.98l-1.48-4.05,1.48,4.05-128.45,47.11c-2.16.79-4.4,1.19-6.64,1.19Zm128.45-77.01c-1.21,0-2.45.21-3.65.65l-128.45,47.11c-2.67.98-4.79,2.94-5.99,5.51s-1.31,5.46-.33,8.13c2.02,5.5,8.14,8.34,13.64,6.32l128.45-47.11c5.5-2.02,8.34-8.14,6.32-13.64-1.58-4.3-5.66-6.97-9.99-6.97Z"/>
        </g>
        <g>
          <rect class="cls-1" x="2527.49" y="1600.93" width="220.4" height="29.89" rx="14.94" ry="14.94" transform="translate(-395.11 1007.11) rotate(-20.14)"/>
          <path class="cls-5" d="m2548.27,1667.93c-7.85,0-15.24-4.84-18.1-12.62-1.77-4.83-1.56-10.06.61-14.72,2.16-4.67,6.01-8.21,10.84-9.98l178.87-65.6c9.97-3.65,21.05,1.48,24.71,11.45,1.77,4.83,1.56,10.06-.61,14.72-2.16,4.67-6.01,8.21-10.84,9.98l-1.48-4.05,1.48,4.05-178.87,65.6c-2.18.8-4.41,1.18-6.61,1.18Zm178.84-95.49c-1.21,0-2.45.21-3.65.65l-178.87,65.6c-2.67.98-4.79,2.94-5.99,5.51s-1.31,5.46-.33,8.13c2.02,5.5,8.14,8.34,13.64,6.32l178.87-65.6c5.5-2.02,8.34-8.14,6.32-13.64-1.58-4.3-5.66-6.97-9.99-6.97Z"/>
        </g>
        <g>
          <rect class="cls-1" x="2553.78" y="1681.75" width="117.67" height="29.89" rx="14.94" ry="14.94" transform="translate(-424.47 1003.42) rotate(-20.14)"/>
          <path class="cls-5" d="m2571.4,1731.07c-2.76,0-5.51-.6-8.08-1.79-4.67-2.16-8.21-6.01-9.98-10.84-1.77-4.83-1.56-10.06.61-14.72,2.16-4.67,6.01-8.21,10.84-9.98l82.42-30.23c9.97-3.65,21.05,1.48,24.71,11.45,1.77,4.83,1.56,10.06-.61,14.72-2.16,4.67-6.01,8.21-10.84,9.98l-82.42,30.23c-2.16.79-4.4,1.19-6.64,1.19Zm82.42-60.13c-1.21,0-2.45.21-3.65.65l-82.42,30.23c-5.5,2.02-8.34,8.14-6.32,13.64s8.14,8.34,13.64,6.32l82.42-30.23c5.5-2.02,8.34-8.14,6.32-13.64-1.58-4.3-5.66-6.97-9.99-6.97Z"/>
        </g>
        <g>
          <rect class="cls-1" x="2680.03" y="1497.81" width="78.92" height="29.89" rx="14.94" ry="14.94" transform="translate(-354.6 1028.97) rotate(-20.14)"/>
          <path class="cls-5" d="m2696.49,1540.45c-7.85,0-15.24-4.84-18.1-12.62-1.77-4.83-1.56-10.06.61-14.72,2.16-4.67,6.01-8.21,10.84-9.98l46.03-16.88c9.97-3.65,21.05,1.48,24.71,11.45,1.77,4.83,1.56,10.06-.61,14.72-2.16,4.67-6.01,8.21-10.84,9.98l-46.03,16.88c-2.18.8-4.41,1.18-6.61,1.18Zm46-46.77c-1.21,0-2.45.21-3.65.65l-46.03,16.88c-2.67.98-4.79,2.94-5.99,5.51s-1.31,5.46-.33,8.13c.98,2.67,2.94,4.79,5.51,5.99,2.58,1.19,5.46,1.31,8.13.33l46.03-16.88h0c5.5-2.02,8.34-8.14,6.32-13.64-1.58-4.3-5.66-6.97-9.99-6.97Z"/>
        </g>
      </g>
    </g>
    <path class="cls-5" d="m5232.29,3504.3H750.88c-2.38,0-4.31-1.93-4.31-4.31s1.93-4.31,4.31-4.31h4481.41c2.38,0,4.31,1.93,4.31,4.31s-1.93,4.31-4.31,4.31Z"/>
    <g>
      <g>
        <path class="cls-1" d="m3760.57,2224.49s33.65,96.17,97.16,126.22c63.51,30.05,93.87,51.29,112,37.56,42.53-32.22,12.29-96.98,12.29-96.98l-113.55-159-126.34,45.07,18.44,47.12Z"/>
        <path class="cls-5" d="m3956.36,2396.89c-15.03,0-35.06-9.99-64.54-24.7-10.57-5.27-22.55-11.25-35.93-17.58-27.14-12.84-52.12-38.44-74.27-76.09-16.08-27.34-24.46-50.74-25.09-52.53l-18.41-47.05c-.42-1.09-.39-2.3.09-3.36s1.38-1.88,2.47-2.27l126.34-45.07c1.81-.65,3.84-.01,4.96,1.55l113.55,159c.15.21.29.44.4.68.32.69,7.89,17.07,10.18,37.75,3.11,28.04-5.11,50.34-23.78,64.48-4.71,3.57-9.94,5.18-15.97,5.18Zm-208.6-216.95l16.82,42.98s.04.1.05.15c.33.95,33.82,94.83,94.94,123.75,13.46,6.37,25.48,12.37,36.09,17.66,28.62,14.27,47.62,23.75,60.46,23.75,4.32,0,7.94-1.07,11-3.39,37.71-28.57,13.33-86.42,11.14-91.38l-111.41-156.01-119.09,42.49Z"/>
      </g>
      <g>
        <path class="cls-1" d="m3801.54,2191.03s39.95,19.46,89.12,36.88c122.93,118.83,239.71,172.1,346.25,160.83,106.54-11.27,193.61-48.15,193.61-48.15l187.47,7.17s42-306.3-15.37-445.61c-113.37,6.83-151.61,9.56-229.47-50.54-77.85-60.1-184.39-137.95-184.39-137.95l-428.88,248.59-79.22,133.86,120.88,94.93Z"/>
        <path class="cls-5" d="m4208.64,2394.53c-100.57,0-208.16-54.67-320.3-162.88-48.44-17.22-88.29-36.56-88.69-36.75-.28-.13-.53-.3-.77-.48l-120.88-94.93c-1.7-1.34-2.15-3.73-1.05-5.59l79.22-133.85c.38-.64.91-1.16,1.55-1.53l428.88-248.59c1.48-.86,3.32-.76,4.71.25,1.07.78,107.47,78.58,184.48,138.02,76.07,58.72,113.43,56.46,224.36,49.78l2.22-.13c1.82-.1,3.54.96,4.25,2.66,24.03,58.35,33.96,151.49,29.52,276.85-3.3,93.13-13.76,170.23-13.87,171-.3,2.2-2.18,3.83-4.44,3.72l-186.52-7.13c-9.6,3.93-93.75,37.49-193.94,48.09-9.51,1.01-19.09,1.51-28.73,1.51Zm-404.8-207.18c4.34,2.09,42.53,20.29,88.27,36.49.58.21,1.11.53,1.56.96,121.21,117.17,236.54,170.89,342.8,159.64,104.62-11.07,191.52-47.46,192.38-47.83.58-.25,1.21-.36,1.85-.34l183.54,7.02c2.14-16.72,10.43-85.45,13.29-166.34,4.25-120.29-5.33-213.64-27.73-270.33-56.01,3.38-93.12,5.57-126.64-.54-33.89-6.17-63.62-20.97-102.62-51.08-70.68-54.56-166.17-124.61-182.03-136.22l-425.47,246.61-76.72,129.63,117.54,92.31Z"/>
      </g>
      <g>
        <path class="cls-1" d="m3191.84,2309.68c-4.56,4.2-4.7,11.34-.32,15.72,3.19,3.19,8,4.08,12.12,2.26l35.32-15.65-17.07-30-30.05,27.67Z"/>
        <path class="cls-5" d="m3199.27,2332.89c-3.97,0-7.9-1.54-10.79-4.44-2.96-2.96-4.54-6.89-4.45-11.07.09-4.18,1.83-8.04,4.9-10.87l30.05-27.67c.97-.89,2.28-1.29,3.58-1.09,1.3.2,2.43.99,3.08,2.13l17.07,30c.6,1.06.73,2.32.35,3.48-.38,1.16-1.23,2.1-2.35,2.59l-35.32,15.65c-1.96.87-4.05,1.29-6.12,1.29Zm21.56-44.04l-26.06,24h0c-1.33,1.23-2.09,2.9-2.12,4.71-.04,1.81.65,3.51,1.93,4.8,1.91,1.91,4.85,2.46,7.33,1.36l30.96-13.72-12.03-21.15Zm-28.98,20.83h0,0Z"/>
      </g>
      <g>
        <polygon class="cls-6" points="3351.83 2162.35 3221.89 2282.01 3238.96 2312.01 3397.93 2241.57 3791.6 1994.52 3734.7 1912.22 3351.83 2162.35"/>
        <path class="cls-6" d="m3238.96,2316.32c-1.51,0-2.96-.79-3.75-2.18l-17.07-30c-.99-1.74-.65-3.94.83-5.3l129.94-119.66c.17-.16.36-.31.56-.44l382.87-250.13c1.96-1.28,4.58-.76,5.9,1.16l56.9,82.3c.67.97.91,2.17.68,3.32-.24,1.15-.93,2.16-1.93,2.78l-393.67,247.04c-.17.11-.36.21-.54.29l-158.97,70.44c-.57.25-1.16.37-1.74.37Zm-11.63-33.46l13.45,23.63,155.12-68.74,389.59-244.48-51.95-75.14-379.05,247.64-127.15,117.1Z"/>
      </g>
      <g>
        <path class="cls-3" d="m4791.11,1283.92c-34.32-48.66-59.42-23.05-59.42-23.05l-997,651.34,56.9,82.3,1002.59-629.16s31.24-32.78-3.07-81.44Z"/>
        <path class="cls-5" d="m3791.6,1998.83c-1.37,0-2.72-.65-3.55-1.86l-56.9-82.3c-.66-.96-.91-2.14-.68-3.28s.9-2.14,1.87-2.78l996.67-651.13c1.88-1.73,10.2-8.57,22.92-7.55,14.41,1.16,28.78,11.76,42.7,31.51,18.67,26.46,18.5,48.59,15.07,62.48-3.75,15.21-12.05,24.05-12.4,24.41-.25.26-.53.49-.83.68l-1002.59,629.16c-.71.45-1.5.66-2.29.66Zm-50.84-85.43l52.04,75.27,998.59-626.65c3.25-3.7,26.45-32.73-3.8-75.62-12.21-17.31-24.78-26.95-36.35-27.88-10.09-.82-16.4,5.3-16.46,5.36-.22.22-.46.42-.72.59l-993.3,648.92Z"/>
      </g>
      <g>
        <path class="cls-1" d="m3686.3,2220.22s4.95,167.14,44.73,190.11c39.78,22.97,83.32,13.75,95.61-6.74,12.29-20.49-6.15-97.32-17.41-144.95-11.27-47.63-19.98-77.34-19.98-77.34l-102.95,38.93Z"/>
        <path class="cls-5" d="m3779.88,2428.16c-16.14,0-34.03-4.29-51.01-14.09-17.71-10.22-30.96-46.16-39.4-106.81-6.17-44.37-7.47-86.49-7.49-86.91-.05-1.84,1.06-3.51,2.78-4.16l102.95-38.93c1.12-.42,2.37-.36,3.45.17,1.07.54,1.88,1.49,2.21,2.65.09.3,8.87,30.36,20.04,77.56l.5,2.13c15.51,65.53,28.43,126,16.41,146.03-8.24,13.74-27.59,22.34-50.46,22.34Zm-89.17-204.99c1.71,48,12.22,165.97,42.48,183.43,39.27,22.67,79.39,12.05,89.76-5.22,3.25-5.42,5.85-19.91-.24-58.17-4.3-27.05-11.44-57.21-17.17-81.44l-.5-2.13c-8.63-36.48-15.82-62.65-18.64-72.65l-95.68,36.18Z"/>
      </g>
      <g>
        <path class="cls-1" d="m3602.81,2216.3s-24.24,138.29,6.15,168.68c30.39,30.39,92.2,8.2,103.81-21.17,11.61-29.37,11.65-139.12,11.65-139.12l-65.38-27.51-56.22,19.12Z"/>
        <path class="cls-5" d="m3647.48,2403.84c-16.59,0-31.22-5.46-41.58-15.81-13.51-13.51-18.8-46.83-15.73-99.04,2.25-38.18,8.32-73.09,8.38-73.44.27-1.55,1.37-2.83,2.86-3.34l56.22-19.12c1-.34,2.09-.3,3.06.11l65.38,27.51c1.6.67,2.64,2.24,2.64,3.98,0,4.52-.18,110.92-11.95,140.71-6.64,16.81-27.69,31.54-52.36,36.65-5.8,1.2-11.47,1.79-16.93,1.79Zm-40.86-184.29c-6.7,39.72-17.74,139.26,5.38,162.38,11.68,11.67,30.14,15.93,50.66,11.67,21.61-4.48,40.56-17.38,46.09-31.38,10.15-25.68,11.22-117.28,11.34-134.68l-61.22-25.76-52.24,17.77Z"/>
      </g>
      <g>
        <path class="cls-1" d="m4162.81,1952s-199.42-56.68-238.34-42.34c-38.93,14.34-274.78,131.88-301.86,147.51-27.07,15.63-131.12,41.66-116.1,116.1,15.02,74.44,60.1,65.56,142.05,62.15,81.95-3.41,231.68-52.31,245.17-60.1,80.92,46.72,158.78,55.66,189.51,86.39,30.73,30.73,84,53.27,158.78,25.61l-79.22-335.32Z"/>
        <path class="cls-5" d="m4177.32,2304.15c-11.04,0-21.77-1.18-32.15-3.53-24.64-5.59-47.1-17.99-64.96-35.86-15.07-15.07-42.34-24.79-76.87-37.09-33.17-11.82-70.68-25.19-109.74-47.46-11.26,5.16-49.4,18.2-95.62,30.96-43.5,12-104.69,26.7-149.22,28.56-6.67.28-13.08.59-19.29.9-70.24,3.43-112.64,5.51-127.17-66.5-5.65-28.01,4.18-52.8,29.22-73.68,20.68-17.24,47.95-28.84,67.87-37.31,8.76-3.73,16.33-6.95,21.08-9.69,27.07-15.63,263.89-133.59,302.52-147.83,39.79-14.66,232.81,39.91,241.01,42.24,2.29.65,3.62,3.04,2.97,5.33-.65,2.29-3.03,3.62-5.33,2.97-68.51-19.47-205.93-53.4-235.67-42.44-38.43,14.16-274.22,131.63-301.19,147.2-5.21,3.01-13,6.32-22.02,10.16-38.74,16.48-103.57,44.06-92.01,101.35,13.07,64.74,48.23,63.02,118.3,59.59,6.22-.3,12.65-.62,19.35-.9,80.72-3.36,229.77-51.77,243.2-59.52,1.33-.77,2.98-.77,4.31,0,39.1,22.58,76.95,36.06,110.33,47.96,35.55,12.67,63.64,22.68,80.08,39.12,22.26,22.26,71.9,55.07,154.24,24.62,2.23-.83,4.71.31,5.54,2.55.83,2.23-.31,4.71-2.55,5.54-23.02,8.52-45.18,12.79-66.21,12.79Z"/>
      </g>
      <g>
        <path class="cls-1" d="m3553.64,1965.66s-17.41,64.54,44.05,64.54,114.09-74.26,135.22-102.44c21.13-28.18,47.12-135.34,47.12-135.34h138.05l202.78-132.48s-78.37-71.08-112.39-90.72c-34.02-19.64-303.72,51.11-321.66,61.46s-90.15,233.56-103.46,263.27c-13.32,29.71-29.71,71.71-29.71,71.71Z"/>
        <path class="cls-5" d="m3597.69,2034.51c-18.66,0-32.46-5.67-41.03-16.86-15.72-20.53-7.54-51.79-7.18-53.11.04-.15.09-.3.15-.44.16-.42,16.58-42.44,29.79-71.9,4.04-9.02,13.61-36.2,25.74-70.62,43.59-123.8,67.86-187.89,79.51-194.62,9.7-5.6,81.45-25.79,156.02-42.46,41.24-9.22,77.6-16.03,105.14-19.69,34.81-4.63,56.01-4.4,64.81.68,34.03,19.65,109.92,88.34,113.13,91.26.99.9,1.51,2.2,1.4,3.53-.11,1.33-.82,2.54-1.94,3.27l-202.78,132.48c-.7.46-1.52.7-2.36.7h-134.67c-4.64,18.63-27.5,107.55-47.05,133.62-.9,1.2-1.86,2.49-2.88,3.85-11.22,15.05-30.01,40.24-53.2,61.35-28.41,25.85-56.19,38.96-82.59,38.96Zm-39.94-67.52c-.64,2.6-6.78,29.09,5.77,45.45,6.85,8.93,18.35,13.46,34.17,13.46,56.67,0,107.27-67.86,128.88-96.84,1.02-1.37,1.99-2.66,2.89-3.87,20.36-27.15,46.12-132.71,46.38-133.77.47-1.93,2.2-3.29,4.19-3.29h136.77l197.01-128.71c-16.62-14.88-78.71-69.83-107.49-86.44-13.02-7.52-74.24-.06-163.77,19.96-76.07,17.01-145.61,36.91-153.59,41.51-2.08,1.25-9.32,10.39-31.57,68.21-14.45,37.55-30.9,84.27-44.12,121.81-12.19,34.61-21.81,61.94-26,71.29-12.6,28.1-28.16,67.78-29.53,71.27Z"/>
      </g>
      <g>
        <path class="cls-3" d="m4686.62,1895.32l262.25-18.44s62.49,58.05,58.39,266c-4.1,207.95-18.44,234.59-18.44,234.59,0,0-50.2,2.05-74.78-13.83-32.78,19.98-51.22,0-90.66-6.15-39.44-6.15-105.51,46.61-128.56-8.2-23.05-54.81-8.2-453.98-8.2-453.98Z"/>
        <path class="cls-5" d="m4982.8,2381.88c-13.96,0-48.03-1.31-68.79-13.22-22.95,12.99-40.05,7.52-59.75,1.2-9.1-2.92-19.42-6.22-31.54-8.11-12.84-2-29.09,2.82-46.29,7.92-32.39,9.6-69.09,20.49-85.58-18.7-23.15-55.05-9.14-439.47-8.53-455.81.08-2.2,1.81-3.99,4-4.14l262.25-18.44c1.2-.08,2.36.33,3.24,1.14.67.62,16.55,15.68,31.84,56.67,13.92,37.31,30.06,104.47,27.93,212.58-4.07,206.62-18.35,235.42-18.95,236.55-.72,1.34-2.1,2.2-3.62,2.26-.41.02-2.66.1-6.2.1Zm-68.76-22.55c.81,0,1.63.23,2.34.69,19.91,12.86,58.69,13.33,69.44,13.2,3.1-9.79,13.69-55.54,17.13-230.43,2.09-106.09-13.55-171.92-27.04-208.47-12.18-33-24.83-48.67-28.75-53.01l-256.36,18.03c-1.44,41.31-13.22,397.82,8,448.28,13.49,32.07,43.46,23.19,75.18,13.78,18.16-5.39,35.32-10.48,50.07-8.17,12.79,1.99,23.44,5.41,32.84,8.42,19.83,6.36,34.16,10.95,54.91-1.7.69-.42,1.47-.63,2.24-.63Z"/>
      </g>
      <g>
        <path class="cls-6" d="m4580.77,1896.68s47.12,119.51,36.88,259.51c-10.24,140-27.32,198.73-27.32,198.73,0,0-4.78,10.93,25.95,14.34,30.73,3.41,79.22,6.15,88.78-4.78,9.56-10.93,43.02-111.32,31.41-268.39-11.61-157.07-32.78-212.39-57.37-213.08-24.59-.68-100.39-1.37-98.34,13.66Z"/>
        <path class="cls-6" d="m4664.77,2376.6c-18.66,0-38.43-1.87-48.96-3.04-15.67-1.74-25.03-5.59-28.6-11.78-1.81-3.13-1.67-6.29-.97-8.22,1.01-3.61,17.3-63.56,27.11-197.68,10.05-137.34-36.12-256.43-36.59-257.62-.13-.32-.21-.66-.26-1-.25-1.81-.04-4.53,2.34-7.18,3.3-3.68,11.75-8.79,46.88-10.82,21.52-1.24,44.6-.8,53.52-.55,15.36.43,27.65,17.11,37.57,50.99,10.39,35.51,18.46,91.39,23.98,166.08,6.26,84.74-.8,150.13-7.82,190.07-7.62,43.34-18.39,74.33-24.65,81.48-3.29,3.76-10.98,8.81-39.63,9.24-1.29.02-2.6.03-3.91.03Zm-70.4-20.08c0,.21.06.64.49,1.24,1.11,1.57,5.47,5.41,21.9,7.23,44.78,4.97,78.96,3.63,85.06-3.33,8.13-9.29,41.98-108.03,30.36-265.24-5.48-74.09-13.43-129.36-23.66-164.29-8.49-29-18.7-44.49-29.53-44.79-9.45-.26-33.79-.72-55.71.72-32.45,2.13-37.49,7.01-38.16,7.95,2.03,5.36,12.68,34.34,22.14,77.01,9.64,43.51,20.02,110.66,14.69,183.51-10.16,138.85-27.31,199.03-27.48,199.62-.1.33,0,.23-.1.38Zm-4.04-1.59h.01-.01Z"/>
      </g>
      <path class="cls-5" d="m3695,2184.07c-1.04,0-2.08-.37-2.91-1.13-.51-.47-12.79-11.81-31.92-36.75-.04-.05-.07-.1-.11-.15-29.78-42.47-10.3-104.63-9.45-107.26.73-2.27,3.16-3.51,5.42-2.79,2.27.73,3.51,3.16,2.79,5.42-.23.73-18.94,60.71,8.25,99.6,18.58,24.21,30.73,35.46,30.85,35.57,1.75,1.61,1.87,4.34.26,6.09-.85.93-2.01,1.4-3.18,1.4Z"/>
    </g>
  </g>
</svg>